<svg version="1.1" xmlns="http://www.w3.org/2000/svg" xmlns:xlink="http://www.w3.org/1999/xlink" width="53.40914" height="51.40586" viewBox="0,0,53.40914,51.40586"><g transform="translate(-206.76413,-150.99938)"><g data-paper-data="{&quot;isPaintingLayer&quot;:true}" fill="none" fill-rule="nonzero" stroke="none" stroke-width="none" stroke-linecap="butt" stroke-linejoin="miter" stroke-miterlimit="10" stroke-dasharray="" stroke-dashoffset="0" font-family="none" font-weight="none" font-size="none" text-anchor="none" style="mix-blend-mode: normal"><path d="M233.46863,201.31357v0c-13.96215,0 -25.61284,-9.64754 -25.61284,-23.60852c0,-13.96215 11.65187,-25.61402 25.61284,-25.61402c13.96112,0 25.61402,11.65391 25.61299,25.61505c0,13.95891 -11.6498,23.6075 -25.61299,23.6075z" data-paper-data="{&quot;origPos&quot;:null}" id="Orange" fill="#faac18" stroke="#000000" stroke-width="2.18331"/><g data-paper-data="{&quot;origPos&quot;:null}" id="Bumps" fill="#231f20" stroke="none" stroke-width="0.72777"><path d="M221.48273,191.60298c0.32627,0.02557 0.33802,1.51448 -0.81713,1.54975c-1.14648,0.03527 -1.34341,-1.4407 -0.93264,-1.47597c0.20325,-0.01822 0.11551,0.52731 0.87284,0.52731c0.75715,0 0.7144,-0.61402 0.87694,-0.60109z" id="ID0.804985926952213"/><path d="M231.13555,194.14535c0.40754,0.03102 0.42473,1.89204 -1.02465,1.93803c-1.4332,0.046 -1.67923,-1.80224 -1.16573,-1.84604c0.25556,-0.02352 0.14432,0.65988 1.09092,0.65988c0.9466,0 0.8931,-0.76789 1.09944,-0.75187z" id="ID0.9794910699129105"/><path d="M241.16286,191.41046c0.40856,0.02881 0.42459,1.88879 -1.02362,1.93803c-1.4332,0.046 -1.67923,-1.8012 -1.16588,-1.84604c0.25674,-0.02468 0.14447,0.65988 1.09107,0.65988c0.94645,0 0.89295,-0.76685 1.09841,-0.75187z" id="ID0.9470401261933148"/><path d="M239.27509,196.28443c0.40739,0.03102 0.42356,1.89204 -1.02259,1.93803c-1.43526,0.046 -1.68026,-1.80224 -1.16794,-1.84604c0.25556,-0.02352 0.14756,0.65988 1.09195,0.65988c0.94455,0 0.8931,-0.76789 1.09857,-0.75187z" id="ID0.7090954459272325"/><path d="M234.42244,185.68073c0.32509,0.02468 0.33905,1.51241 -0.81934,1.55195c-1.14441,0.03424 -1.34341,-1.44275 -0.93264,-1.47818c0.20325,-0.01808 0.11551,0.52731 0.87284,0.52731c0.75715,0 0.7144,-0.61387 0.87915,-0.60109z" id="ID0.44101877231150866"/><path d="M215.97239,182.94584c0.32509,0.02352 0.33905,1.51241 -0.81934,1.55092c-1.14441,0.03527 -1.34341,-1.44172 -0.93264,-1.47597c0.20325,-0.02043 0.11551,0.52613 0.87269,0.52613c0.75731,0 0.71454,-0.61284 0.8793,-0.60109z" id="ID0.06726754968985915"/><path d="M226.2028,187.05191c0.32612,0.02146 0.33905,1.51139 -0.81713,1.54989c-1.14662,0.0363 -1.34341,-1.4407 -0.93279,-1.47613c0.20325,-0.01925 0.11551,0.52731 0.87284,0.52731c0.75731,0 0.71454,-0.6149 0.87709,-0.60109z" id="ID0.007415797095745802"/><path d="M217.75112,177.38952c0.28437,0.02234 0.29613,1.32519 -0.71778,1.3562c-1.00436,0.02999 -1.17764,-1.2611 -0.81816,-1.29212c0.17754,-0.01382 0.10257,0.46205 0.76364,0.46205c0.6631,0 0.62563,-0.53686 0.7723,-0.52613z" id="ID0.8762991363182664"/><path d="M228.09161,177.29532c0.32523,0.02249 0.33905,1.51241 -0.81934,1.54989c-1.14323,0.0363 -1.34327,-1.4407 -0.93264,-1.47613c0.20325,-0.01925 0.11551,0.52731 0.87284,0.52731c0.75731,0 0.7144,-0.61387 0.87915,-0.60109z" id="ID0.33623187709599733"/><path d="M223.2604,168.97311c0.28658,0.02029 0.29731,1.32401 -0.71661,1.354c-1.00333,0.03102 -1.17543,-1.26096 -0.81609,-1.29197c0.17856,-0.01396 0.10155,0.46205 0.76364,0.46205c0.66207,0 0.62577,-0.53481 0.76906,-0.52409z" id="ID0.7284569386392832"/><path d="M249.20069,182.94584c0.32612,0.02352 0.33905,1.51241 -0.81727,1.55092c-1.14544,0.0363 -1.34223,-1.44172 -0.93146,-1.47715c0.20207,-0.01925 0.11434,0.52731 0.87166,0.52731c0.75715,0 0.7144,-0.61284 0.87709,-0.60109z" id="ID0.2832300402224064"/><path d="M247.06573,163.91073c0.2353,0.01719 0.24397,1.08887 -0.59036,1.11458c-0.82565,0.02778 -0.96366,-1.03639 -0.6706,-1.06213c0.14653,-0.01279 0.0823,0.37962 0.62784,0.37962c0.54553,0 0.51761,-0.4406 0.63312,-0.43208z" id="ID0.23476475197821856"/><path d="M254.97951,180.18217c0.33905,0.02454 0.35184,1.56679 -0.85137,1.60428c-1.18513,0.03748 -1.3872,-1.49301 -0.96366,-1.52727c0.2128,-0.01719 0.12079,0.54538 0.90486,0.54538c0.78392,0 0.74011,-0.63415 0.91016,-0.6224z" id="ID0.8315284247510135"/><path d="M254.94954,185.68073c0.32627,0.02468 0.33905,1.51241 -0.81713,1.55195c-1.14544,0.03424 -1.34238,-1.44275 -0.93161,-1.47818c0.20223,-0.01808 0.11448,0.52731 0.87166,0.52731c0.75731,0 0.71454,-0.61387 0.87709,-0.60109z" id="ID0.44592879386618733"/><path d="M221.23566,161.17483c0.2353,0.01601 0.245,1.08769 -0.59036,1.11342c-0.82683,0.02778 -0.96585,-1.03639 -0.6706,-1.06095c0.1455,-0.01294 0.08025,0.37962 0.62784,0.37962c0.54538,0 0.51439,-0.4406 0.63312,-0.43208z" id="ID0.722075801808387"/><path d="M254.67676,174.27488c0.22574,0.01704 0.23324,1.04492 -0.56038,1.06962c-0.79259,0.02674 -0.92941,-0.9926 -0.64606,-1.01716c0.13801,-0.01294 0.08025,0.36358 0.60212,0.36358c0.52099,0 0.49307,-0.42459 0.60432,-0.41607z" id="ID0.5132322055287659"/><path d="M236.91982,161.17483c0.2353,0.01601 0.245,1.08769 -0.59036,1.11342c-0.82683,0.02778 -0.96585,-1.03639 -0.6706,-1.06095c0.1455,-0.01294 0.08025,0.37962 0.62784,0.37962c0.54538,0 0.51439,-0.4406 0.63312,-0.43208z" id="ID0.5369726498611271"/><path d="M238.92104,155.68905c0.23427,0.01704 0.24382,1.08769 -0.59257,1.11342c-0.82565,0.02778 -0.96366,-1.03639 -0.6706,-1.06109c0.14756,-0.01279 0.0823,0.37873 0.62784,0.37873c0.54759,0 0.51657,-0.43972 0.63533,-0.43105z" id="ID0.9760562963783741"/><path d="M248.22733,190.23709c0.32509,0.02468 0.33905,1.51139 -0.81934,1.54989c-1.14544,0.03527 -1.34341,-1.44187 -0.93161,-1.47495c0.20223,-0.02043 0.11448,0.52613 0.8718,0.52613c0.75715,0 0.7144,-0.61607 0.87915,-0.60109z" id="ID0.6669098972342908"/><path d="M212.95402,170.34106c0.28555,0.02132 0.29849,1.32401 -0.71661,1.35516c-1.00319,0.03102 -1.17543,-1.26213 -0.81609,-1.29212c0.1787,-0.01498 0.1017,0.46205 0.76364,0.46205c0.66207,0 0.62577,-0.53583 0.76906,-0.52511z" id="ID0.4851362085901201"/><path d="M240.21301,170.02876c0.28452,0.02029 0.29628,1.32298 -0.71764,1.35502c-1.00539,0.03102 -1.17764,-1.26199 -0.8183,-1.29197c0.17768,-0.01498 0.10375,0.46205 0.76378,0.46205c0.66207,0 0.62563,-0.53583 0.77216,-0.52511z" id="ID0.8932326091453433"/><path d="M251.97084,166.18473c0.22457,0.01601 0.23427,1.0439 -0.56155,1.06947c-0.79464,0.02571 -0.93058,-0.99363 -0.64606,-1.01817c0.13903,-0.01279 0.07921,0.36476 0.60109,0.36476c0.52306,0 0.49307,-0.42473 0.60652,-0.41607z" id="ID0.9554788623936474"/><path d="M242.83356,185.05407c0.32509,0.02234 0.33787,1.51227 -0.81934,1.54975c-1.14559,0.0363 -1.34341,-1.4407 -0.93161,-1.47597c0.20207,-0.01822 0.11448,0.52731 0.87166,0.52731c0.75731,0 0.71454,-0.61504 0.8793,-0.60109z" id="ID0.13395912060514092"/><path d="M242.21101,177.29532c0.32509,0.02249 0.33905,1.51241 -0.81934,1.54989c-1.14544,0.0363 -1.34223,-1.4407 -0.93264,-1.47613c0.20325,-0.01925 0.11551,0.52731 0.87284,0.52731c0.75833,0 0.7144,-0.61387 0.87915,-0.60109z" id="ID0.555884491186589"/><path d="M247.95457,172.90796c0.22678,0.01601 0.23427,1.04287 -0.56038,1.06962c-0.79259,0.02674 -0.92956,-0.99363 -0.64606,-1.01832c0.13801,-0.01279 0.08025,0.36374 0.60212,0.36374c0.52306,0 0.49307,-0.42356 0.60432,-0.41503z" id="ID0.9714229269884527"/><path d="M235.27909,180.20891c0.32627,0.02557 0.34023,1.51227 -0.81713,1.54975c-1.14662,0.03748 -1.34546,-1.4407 -0.93264,-1.47495c0.20105,-0.01925 0.1133,0.52627 0.87063,0.52627c0.75731,0 0.7144,-0.61504 0.87915,-0.60109z" id="ID0.24664071295410395"/><path d="M231.75707,170.02876c0.28452,0.02029 0.29731,1.32298 -0.71661,1.35502c-1.00539,0.03102 -1.17543,-1.26199 -0.81609,-1.29197c0.17856,-0.01498 0.10155,0.46205 0.76364,0.46205c0.66207,0 0.62577,-0.53583 0.76906,-0.52511z" id="ID0.6990464325062931"/></g><path d="M230.14441,159.43461v0c-2.7124,0.26101 -3.01514,-2.90815 -0.30054,-3.16916c2.71459,-0.2588 3.01617,2.91036 0.30054,3.16916" data-paper-data="{&quot;origPos&quot;:null}" id="Pit" fill="#231f20" stroke="none" stroke-width="0.72777"/></g></g></svg>